<svg xmlns="http://www.w3.org/2000/svg" viewBox="0 0 512 512"><path fill="#FFB000" d="M256.009 59.504c110.32 0 200 89.68 200 200s-89.68 200-200 200-200-89.68-200-200 89.68-200 200-200z"/><path fill="#9D2888" d="M256.009 283.504v128l-80-152zM256.009 91.504l80 168-80 24z"/><path fill="#FF8939" d="M256.009 11.504c136.96 0 248 111.04 248 248s-111.04 248-248 248-248-111.04-248-248 111.04-248 248-248zm200 248c0-110.32-89.68-200-200-200s-200 89.68-200 200 89.68 200 200 200 200-89.68 200-200z"/><path fill="#620774" d="m336.009 259.504-80 152v-128z"/><path fill="#C47EB8" d="M256.009 91.504v192l-80-24z"/><path fill="#FFD066" d="M109.963 177.723s-1.498-41.603 39.951-52.132-36.158 79.738-39.951 52.132zm260.202-22.219a7.956 7.956 0 0 1-5.711-2.398c-13.742-14.008-29.777-25.078-47.656-32.914a8 8 0 0 1-4.117-10.539c1.777-4.047 6.5-5.883 10.539-4.117 19.758 8.656 37.477 20.891 52.656 36.367a7.997 7.997 0 0 1-.109 11.312 7.988 7.988 0 0 1-5.602 2.289zm28.719 40a8.001 8.001 0 0 1-7.145-4.383 152.757 152.757 0 0 0-8.832-15.203 8 8 0 0 1 2.258-11.086c3.688-2.43 8.648-1.422 11.086 2.258a168.389 168.389 0 0 1 9.762 16.797 8.009 8.009 0 0 1-3.523 10.758 7.97 7.97 0 0 1-3.606.859z"/></svg>