<svg xmlns="http://www.w3.org/2000/svg" enable-background="new 0 0 64 64" viewBox="0 0 64 64"><path fill="#0A5078" d="M26,52H10c-2.209,0-4,1.791-4,4v0h24v0C30,53.791,28.209,52,26,52z"/><path fill="#00A0C8" d="M54,52H38c-2.209,0-4,1.791-4,4v0h24v0C58,53.791,56.209,52,54,52z"/><path fill="#00325A" d="M18,56L18,56c-2.209,0-4-1.791-4-4v-6h8v6C22,54.209,20.209,56,18,56z"/><path fill="#0A5078" d="M22,24h-8c-3.314,0-6,2.686-6,6v14c0,3.314,2.686,6,6,6h8c3.314,0,6-2.686,6-6V30     C28,26.686,25.314,24,22,24z"/><path fill="#C80A50" d="M7 42h1v-8H7c-.552 0-1 .448-1 1v6C6 41.552 6.448 42 7 42zM29 42h-1v-8h1c.552 0 1 .448 1 1v6C30 41.552 29.552 42 29 42z"/><path fill="#00325A" d="M22 48v2c3.314 0 6-2.686 6-6v-2C24.686 42 22 44.686 22 48zM8 42v2c0 3.314 2.686 6 6 6v-2C14 44.686 11.314 42 8 42z"/><circle cx="13" cy="36" r="3" fill="#00325A"/><circle cx="23" cy="36" r="3" fill="#00325A"/><circle cx="13" cy="35" r="3" fill="#00A0C8"/><circle cx="13" cy="35" r="1" fill="#FAB400"/><circle cx="23" cy="35" r="3" fill="#00A0C8"/><circle cx="23" cy="35" r="1" fill="#FAB400"/><rect width="8" height="1" x="14" y="50" fill="#00143C"/><path fill="#00325A" d="M21,46h-6c-0.552,0-1-0.448-1-1l0,0c0-0.552,0.448-1,1-1h6c0.552,0,1,0.448,1,1l0,0     C22,45.552,21.552,46,21,46z"/><path fill="#00143C" d="M15,45h6c0.37,0,0.693,0.201,0.866,0.5C21.951,45.353,22,45.182,22,45c0-0.552-0.448-1-1-1h-6     c-0.552,0-1,0.448-1,1c0,0.182,0.049,0.353,0.134,0.5C14.307,45.201,14.63,45,15,45z"/><path fill="#00325A" d="M18,43L18,43c-0.552,0-1-0.448-1-1v-2c0-0.552,0.448-1,1-1h0c0.552,0,1,0.448,1,1v2     C19,42.552,18.552,43,18,43z"/><path fill="#00A0C8" d="M18,42L18,42c-0.552,0-1-0.448-1-1v-2c0-0.552,0.448-1,1-1h0c0.552,0,1,0.448,1,1v2     C19,41.552,18.552,42,18,42z"/><rect width="1" height="8" x="7" y="34" fill="#A00028"/><rect width="1" height="8" x="28" y="34" fill="#A00028"/><path fill="#FAB400" d="M5 40h1v-4H5c-.552 0-1 .448-1 1v2C4 39.552 4.448 40 5 40zM31 40h-1v-4h1c.552 0 1 .448 1 1v2C32 39.552 31.552 40 31 40z"/><rect width="1" height="4" x="5" y="36" fill="#DC9600"/><rect width="1" height="4" x="30" y="36" fill="#DC9600"/><path fill="#00325A" d="M20,30h-4c-1.105,0-2-0.895-2-2v-4h8v4C22,29.105,21.105,30,20,30z"/><path fill="#0A5078" d="M48,24h-4c-4.418,0-8,3.582-8,8v6h20v-6C56,27.582,52.418,24,48,24z"/><path fill="#D2AA82" d="M46,56L46,56c-2.209,0-4-1.791-4-4v-6h8v6C50,54.209,48.209,56,46,56z"/><path fill="#F0C8A0" d="M48,50h-4c-4.418,0-8-3.582-8-8v-4l0,0c1.105,0,2-0.895,2-2v-2c0-1.105,0.895-2,2-2h12     c1.105,0,2,0.895,2,2l0,2c0,1.105,0.895,2,2,2h0v4C56,46.418,52.418,50,48,50z"/><path fill="#D2AA82" d="M36 42L36 42l0-6h0c-1.105 0-2 .895-2 2v2C34 41.105 34.895 42 36 42zM56 42L56 42v-6l0 0c1.105 0 2 .895 2 2v2C58 41.105 57.105 42 56 42z"/><path fill="#C80A50" d="M47 46h-2c-.552 0-1-.448-1-1l0 0c0-.552.448-1 1-1h2c.552 0 1 .448 1 1l0 0C48 45.552 47.552 46 47 46zM24 8H8c-2.206 0-4 1.794-4 4v13c0 .404.244.769.617.924C4.741 25.975 4.871 26 5 26c.26 0 .516-.102.707-.293L9.414 22H24c2.206 0 4-1.794 4-4v-6C28 9.794 26.206 8 24 8z"/><path fill="#FAB400" d="M56,8H40c-2.206,0-4,1.794-4,4v6c0,2.206,1.794,4,4,4h14.586l3.707,3.707C58.484,25.898,58.74,26,59,26    c0.129,0,0.259-0.025,0.383-0.076C59.756,25.769,60,25.404,60,25V12C60,9.794,58.206,8,56,8z"/><path fill="#A00028" d="M15 14H9c-.552 0-1-.448-1-1v0c0-.552.448-1 1-1h6c.552 0 1 .448 1 1v0C16 13.552 15.552 14 15 14zM15 18H9c-.552 0-1-.448-1-1v0c0-.552.448-1 1-1h6c.552 0 1 .448 1 1v0C16 17.552 15.552 18 15 18z"/><path fill="#DC9600" d="M55 14h-6c-.552 0-1-.448-1-1v0c0-.552.448-1 1-1h6c.552 0 1 .448 1 1v0C56 13.552 55.552 14 55 14zM55 18h-6c-.552 0-1-.448-1-1v0c0-.552.448-1 1-1h6c.552 0 1 .448 1 1v0C56 17.552 55.552 18 55 18z"/><circle cx="21" cy="15" r="3" fill="#00A0C8"/><circle cx="43" cy="15" r="3" fill="#00A0C8"/><path fill="#0A5078" d="M43,16H21c-0.552,0-1-0.448-1-1v0c0-0.552,0.448-1,1-1h22c0.552,0,1,0.448,1,1v0     C44,15.552,43.552,16,43,16z"/></svg>